<svg xmlns="http://www.w3.org/2000/svg" width="33" height="27" viewBox="0 0 33 27">
  <path fill="#FEFEFE" fill-rule="evenodd" d="M52.7380661,25.2928607 C51.5093244,22.066659 47.9372074,20.0939608 44.0518876,20.4983261 C38.3726346,21.0872867 37.4036076,25.9251358 36.3775266,31.0472905 C36.2429147,31.7199731 36.1065199,32.4010859 35.9579417,33.0821988 C34.5304024,39.6325685 33.6225897,42.1075983 29.7188461,42.1075983 C27.1817248,42.1075983 25.9179187,40.0218174 25.3045879,38.2723777 C25.1093561,37.7156849 24.6258827,37.267133 23.9783789,37.0415489 C23.2969993,36.804046 22.5692633,36.8572443 22.0325988,37.1839924 C20.9898771,37.8183024 20.7881079,38.9671535 20.9470865,39.830536 C21.3577567,42.065156 24.4698756,46.4460227 29.8023471,46.4460227 C33.4012081,46.4460227 36.2414289,44.8936784 38.0166412,41.9573058 C39.5119322,39.4825667 40.1258573,36.5895085 40.5659459,33.8316264 L40.6916431,33.0388843 C41.4612781,28.1676047 41.9257336,25.2271622 44.9935762,25.0477996 C47.0736709,24.9262865 47.9645458,26.0437418 48.5630188,27.1521854 C49.2503415,28.4237124 50.5741733,28.5740049 51.512296,28.1754536 C52.6709088,27.6838779 53.1864751,26.4713633 52.7380661,25.2928607" transform="translate(-20 -20)"/>
</svg>
